<svg xmlns="http://www.w3.org/2000/svg" viewBox="0 0 24 24" width="24" height="24" fill="#000000"><path d="M7.12 3.11L7.14 3.11L7.3 3.13L7.38 3.14L7.48 3.17L7.56 3.19L7.69 3.23L7.77 3.26L7.89 3.31L7.96 3.35L8.04 3.4L8.12 3.45L8.2 3.5L8.28 3.56L8.35 3.61L8.43 3.67L8.49 3.73L8.57 3.8L11.38 6.62L11.53 6.79L11.64 6.98L11.71 7.19L11.75 7.41L11.74 7.64L11.7 7.86L11.62 8.06L11.5 8.25L11.35 8.42L11.17 8.56L10.97 8.66L10.76 8.72L10.54 8.75L10.31 8.74L10.1 8.68L9.89 8.59L9.71 8.47L9.62 8.38L8.25 7.02L8.25 20L8.23 20.22L8.17 20.44L8.07 20.64L7.94 20.82L7.78 20.98L7.6 21.1L7.39 21.19L7.17 21.24L6.95 21.25L6.73 21.22L6.52 21.15L6.32 21.05L6.14 20.91L6 20.74L5.88 20.55L5.8 20.34L5.76 20.12L5.75 20L5.75 7.02L4.38 8.38L4.21 8.53L4.02 8.64L3.81 8.71L3.59 8.75L3.36 8.74L3.15 8.7L2.94 8.62L2.75 8.5L2.58 8.35L2.44 8.17L2.34 7.97L2.28 7.76L2.25 7.54L2.26 7.31L2.32 7.1L2.41 6.89L2.53 6.71L2.62 6.62L5.43 3.8L5.51 3.73L5.58 3.67L5.65 3.61L5.72 3.56L5.8 3.5L5.88 3.45L5.96 3.4L6.04 3.35L6.11 3.31L6.23 3.26L6.31 3.23L6.44 3.19L6.52 3.17L6.62 3.14L6.7 3.13L6.81 3.12L6.83 3.11L7.05 3.1ZM17.27 2.78L17.48 2.85L17.68 2.95L17.86 3.09L18.01 3.26L18.12 3.45L18.2 3.66L18.24 3.88L18.25 4L18.25 16.98L19.62 15.62L19.79 15.47L19.98 15.36L20.19 15.29L20.41 15.25L20.64 15.26L20.86 15.3L21.06 15.38L21.25 15.5L21.42 15.65L21.56 15.83L21.66 16.03L21.72 16.24L21.75 16.46L21.74 16.69L21.68 16.9L21.59 17.11L21.47 17.29L21.38 17.38L18.57 20.2L18.49 20.27L18.43 20.33L18.35 20.4L18.28 20.44L18.2 20.5L18.12 20.56L18.04 20.6L17.96 20.65L17.89 20.69L17.77 20.74L17.69 20.77L17.56 20.81L17.48 20.84L17.38 20.86L17.3 20.87L17.14 20.89L17.06 20.89L16.94 20.89L16.86 20.89L16.7 20.87L16.62 20.86L16.52 20.84L16.44 20.81L16.31 20.77L16.23 20.74L16.11 20.69L16.04 20.65L15.96 20.6L15.88 20.56L15.8 20.5L15.72 20.44L15.65 20.4L15.58 20.33L15.51 20.27L15.43 20.2L12.62 17.38L12.47 17.21L12.36 17.02L12.29 16.81L12.25 16.59L12.26 16.36L12.3 16.15L12.38 15.94L12.5 15.75L12.65 15.58L12.83 15.45L13.03 15.34L13.24 15.28L13.46 15.25L13.69 15.26L13.9 15.32L14.11 15.41L14.29 15.53L14.38 15.62L15.75 16.98L15.75 4L15.77 3.78L15.83 3.56L15.93 3.36L16.06 3.18L16.22 3.03L16.4 2.9L16.61 2.81L16.83 2.76L17.05 2.75Z"/></svg>
